<?xml version="1.0" encoding="utf-8"?>
<!-- Generator: Adobe Illustrator 24.3.0, SVG Export Plug-In . SVG Version: 6.00 Build 0)  -->
<svg version="1.1" id="Livello_1" xmlns="http://www.w3.org/2000/svg" xmlns:xlink="http://www.w3.org/1999/xlink" x="0px" y="0px"
	 viewBox="0 0 198.9 244.3" style="enable-background:new 0 0 198.9 244.3;" xml:space="preserve">
<style type="text/css">
	.st0{fill:#FFFFFF;}
</style>
<path class="st0" d="M192.6,83.3c-1.4,1.1-26.4,15.2-26.4,46.5c0,36.3,31.8,49.1,32.8,49.4c-0.1,0.8-5.1,17.6-16.8,34.7
	c-10.5,15.1-21.4,30.1-38,30.1s-20.9-9.7-40.1-9.7c-18.7,0-25.3,10-40.5,10s-25.8-13.9-38-31C11.4,193.2,0,162,0,132.4
	c0-47.5,30.9-72.7,61.3-72.7c16.1,0,29.6,10.6,39.8,10.6c9.7,0,24.7-11.2,43.1-11.2C151.1,59.1,176.1,59.7,192.6,83.3z M135.4,38.9
	c7.6-9,13-21.5,13-34c0-1.7-0.1-3.5-0.5-4.9c-12.4,0.5-27.1,8.2-35.9,18.5c-7,7.9-13.5,20.4-13.5,33.1c0,1.9,0.3,3.8,0.5,4.4
	c0.8,0.1,2.1,0.3,3.3,0.3C113.4,56.4,127.3,48.9,135.4,38.9z"/>
</svg>
