<svg width="32" height="32" viewBox="0 0 32 32" fill="none" xmlns="http://www.w3.org/2000/svg">
<path d="M30.08 16.3333C30.08 15.2933 29.9867 14.2933 29.8133 13.3333H16V19.0133H23.8933C23.5467 20.84 22.5067 22.3867 20.9467 23.4267V27.12H25.7067C28.48 24.56 30.08 20.8 30.08 16.3333Z" fill="#4285F4"/>
<path d="M16 30.6667C19.96 30.6667 23.28 29.36 25.7067 27.12L20.9467 23.4267C19.64 24.3067 17.9733 24.84 16 24.84C12.1867 24.84 8.94668 22.2667 7.78668 18.8H2.90668V22.5867C5.32001 27.3733 10.2667 30.6667 16 30.6667Z" fill="#34A853"/>
<path d="M7.78665 18.7867C7.49331 17.9067 7.31998 16.9733 7.31998 16C7.31998 15.0267 7.49331 14.0933 7.78665 13.2133V9.42667H2.90665C1.90665 11.4 1.33331 13.6267 1.33331 16C1.33331 18.3733 1.90665 20.6 2.90665 22.5733L6.70665 19.6133L7.78665 18.7867Z" fill="#FBBC05"/>
<path d="M16 7.17334C18.16 7.17334 20.08 7.92 21.6133 9.36L25.8133 5.16C23.2667 2.78667 19.96 1.33334 16 1.33334C10.2667 1.33334 5.32001 4.62667 2.90668 9.42667L7.78668 13.2133C8.94668 9.74667 12.1867 7.17334 16 7.17334Z" fill="#EA4335"/>
</svg>
