<svg width="863" height="1021" viewBox="0 0 863 1021" fill="none" xmlns="http://www.w3.org/2000/svg">
<path fill-rule="evenodd" clip-rule="evenodd" d="M835.12 0.565427C795.772 5.44907 749.72 45.9272 701.547 117.978C660.043 180.052 622.546 248.728 592.965 316.843C562.526 386.933 538.599 434.191 522.503 456.008C506.652 477.494 491.725 486.618 479.195 482.481C465.978 478.118 462.419 458.09 459.091 369.331C458.267 347.375 456.869 323.425 455.984 316.109C451.51 279.126 439.464 256.12 419.419 246.272C412.183 242.717 409.321 242.176 397.778 242.176C382.262 242.176 374.502 245.121 358.894 256.936C336.436 273.938 309.923 325.78 276.852 392C240.66 464.468 258.106 460 200.852 378C135.352 366 235.85 500.183 258.106 501.661C280.362 503.14 279.998 490.532 299.58 443.998C321.994 390.733 347.53 344.113 362.486 329.153C375.639 315.996 384.415 320.014 388.879 341.239C390.973 351.195 392.098 364.817 395.591 422.559C398.516 470.915 403.548 496.878 414.361 519.404C419.789 530.707 423.157 535.474 431.611 543.816C443.379 555.427 451.825 560.176 465.094 562.645C478.08 565.061 491.904 562.382 508.629 554.209C531.346 543.108 545.745 528.661 569.11 493.529C583.276 472.228 594.793 450.843 611.874 414.125C619.551 397.62 630.967 373.471 637.243 360.46C643.519 347.449 656.777 319.807 666.706 299.035C705.822 217.211 748.381 144.79 777.891 109.846C789.631 95.9435 812.494 72.3474 839.99 45.7572C859.816 26.5834 864.241 19.4051 861.702 10.5456C859.166 1.69799 850.926 -1.39513 835.12 0.565427Z" fill="white"/>
<path fill-rule="evenodd" clip-rule="evenodd" d="M98.4102 107.523C71.197 113.261 50.4841 126.761 28.1335 153.331C18.2633 165.065 7.83298 184.602 3.24966 199.942C0.738508 208.348 0.57742 227.294 0.184268 560.398C-0.223665 904.957 -0.173426 912.27 2.67323 926.339C4.72472 936.471 7.64972 944.826 12.6173 954.74C18.5915 966.666 21.8933 971.036 34.486 983.693C51.2748 1000.57 63.6044 1008.45 84.7903 1015.88L98.0924 1020.54L360.44 1020.94C504.731 1021.16 637.42 1020.75 655.304 1020.02C684.708 1018.81 688.951 1018.31 699.63 1014.7C736.497 1002.24 766.594 969.687 777.614 930.344L780.928 918.516L781.331 679.001C781.633 500.321 781.302 438.439 780.026 435.361C777.759 429.884 766.312 419.938 760.911 418.752C754.86 417.421 745.671 422.932 740.225 431.157L735.856 437.756L735.831 670.742C735.809 867.41 735.475 905.29 733.685 913.74C727.873 941.174 705.189 964.648 676.694 972.712C671.499 974.183 611.574 974.681 396.742 975.042C93.685 975.55 108.634 975.99 87.5394 965.968C68.7878 957.06 53.2096 938.013 47.6773 917.232C45.9983 910.922 45.6554 851.885 45.6406 566.562C45.6214 185.684 44.7952 216.348 55.6261 195.642C65.5864 176.605 84.1976 161.246 106.221 153.893C113.895 151.33 125.26 151.137 309.2 150.425L504.051 149.671L508.363 144.843C515.728 136.597 513.592 127.13 502.161 117.342C494.509 110.79 485.634 107.771 468.826 106.003C461.523 105.234 379.907 104.663 283.583 104.706C121.819 104.78 110.608 104.95 98.4102 107.523Z" fill="white"/>
<path fill-rule="evenodd" clip-rule="evenodd" d="M232.944 614.358L196.225 651.006L178.198 632.717C168.282 622.657 158.373 613.484 156.178 612.332C150.476 609.341 140.344 609.721 134.746 613.136C126.725 618.027 122.914 629.532 126.045 639.4C127.196 643.028 178.527 693.529 185.295 697.692C191.955 701.789 200.501 701.218 208.284 696.158C211.898 693.807 233.248 673.349 255.727 650.693C299.643 606.43 300.925 604.692 298.316 592.938C297.5 589.256 295.171 585.665 291.559 582.516C286.764 578.336 284.982 577.71 277.855 577.71H269.662L232.944 614.358Z" fill="white"/>
<path fill-rule="evenodd" clip-rule="evenodd" d="M346.777 667.265C341.677 670.032 336.792 679.429 336.792 686.471C336.792 693.833 340.814 701.7 346.281 705.034C350.644 707.697 356.262 707.812 481.637 707.812C608.556 707.812 612.582 707.727 617.151 704.94C629.282 697.539 630.561 679.003 619.604 669.379L614.555 664.945L482.694 665.004C368.795 665.056 350.28 665.363 346.777 667.265Z" fill="white"/>
<path fill-rule="evenodd" clip-rule="evenodd" d="M271.759 731.02C270.54 731.451 253.161 748.111 233.142 768.044L196.741 804.284L177.215 785.255C166.477 774.789 156.252 765.416 154.495 764.429C146.384 759.869 132.913 764.112 127.79 772.84C124.398 778.621 124.234 788.899 127.458 793.793C131.484 799.902 184.137 849.677 188.216 851.228C193.478 853.229 202.304 853.028 206.194 850.82C207.934 849.832 228.984 829.693 252.972 806.066C300.178 759.57 301.482 757.851 298.358 746.241C295.404 735.27 281.779 727.472 271.759 731.02Z" fill="white"/>
<path fill-rule="evenodd" clip-rule="evenodd" d="M346.171 790.701C339.603 794.91 336.289 802.609 337.157 811.639C337.971 820.121 341.6 825.745 348.721 829.562C353.529 832.14 358.253 832.235 440.992 831.413C488.953 830.937 547.659 830.546 571.449 830.545L614.702 830.542L619.932 825.737C629.681 816.781 629.681 801.428 619.932 792.469L614.702 787.664L482.768 787.689C352.935 787.713 350.759 787.762 346.171 790.701Z" fill="white"/>
</svg>
