<svg width="86" height="86" viewBox="0 0 86 86" fill="none" xmlns="http://www.w3.org/2000/svg">
<rect width="86" height="86" rx="20" fill="url(#paint0_linear_60_96)"/>
<path fill-rule="evenodd" clip-rule="evenodd" d="M70.5304 9.03489C68.1025 9.33623 65.2609 11.8339 62.2884 16.2798C59.7274 20.11 57.4137 24.3475 55.5884 28.5505C53.7102 32.8754 52.2338 35.7914 51.2406 37.1376C50.2625 38.4634 49.3415 39.0264 48.5683 38.7711C47.7528 38.5019 47.5332 37.2661 47.3278 31.7893C47.277 30.4345 47.1907 28.9567 47.1361 28.5053C46.86 26.2233 46.1168 24.8037 44.8799 24.196C44.4334 23.9767 44.2568 23.9433 43.5446 23.9433C42.5872 23.9433 42.1084 24.125 41.1453 24.8541C39.7595 25.9031 38.1235 29.102 36.0829 33.188C33.8497 37.6596 34.9262 37.3839 31.3934 32.3242C27.3518 31.5837 33.5529 39.8634 34.9262 39.9546C36.2995 40.0458 36.277 39.2679 37.4854 36.3965C38.8684 33.1099 40.4441 30.2332 41.3669 29.3101C42.1785 28.4982 42.72 28.7462 42.9955 30.0559C43.1247 30.6702 43.1941 31.5107 43.4096 35.0736C43.5901 38.0574 43.9006 39.6595 44.5678 41.0494C44.9027 41.7468 45.1106 42.041 45.6322 42.5557C46.3584 43.2722 46.8795 43.5652 47.6983 43.7176C48.4995 43.8666 49.3525 43.7013 50.3845 43.197C51.7863 42.512 52.6748 41.6206 54.1164 39.4528C54.9906 38.1384 55.7012 36.8189 56.7552 34.5533C57.2289 33.5348 57.9333 32.0447 58.3206 31.2419C58.7078 30.439 59.5259 28.7334 60.1385 27.4517C62.5521 22.4028 65.1782 17.9342 66.9991 15.778C67.7235 14.9201 69.1343 13.4641 70.8309 11.8234C72.0542 10.6403 72.3273 10.1974 72.1706 9.65071C72.0141 9.10477 71.5057 8.91391 70.5304 9.03489Z" fill="white"/>
<path fill-rule="evenodd" clip-rule="evenodd" d="M25.0723 15.6346C23.3932 15.9887 22.1151 16.8217 20.736 18.4612C20.1269 19.1852 19.4833 20.3907 19.2005 21.3373C19.0456 21.8559 19.0356 23.025 19.0114 43.5789C18.9862 64.8397 18.9893 65.2909 19.1649 66.159C19.2915 66.7842 19.472 67.2997 19.7785 67.9115C20.1472 68.6473 20.3509 68.917 21.1279 69.698C22.1639 70.7392 22.9247 71.2258 24.2319 71.6838L25.0527 71.9713L41.2407 71.9963C50.144 72.01 58.3315 71.9844 59.435 71.9393C61.2493 71.8651 61.5112 71.8337 62.1701 71.611C64.445 70.8425 66.3021 68.8337 66.9821 66.4061L67.1865 65.6763L67.2114 50.8972C67.23 39.8719 67.2096 36.0535 67.1309 35.8636C66.991 35.5257 66.2847 34.9119 65.9514 34.8388C65.578 34.7567 65.011 35.0967 64.675 35.6042L64.4054 36.0114L64.4038 50.3876C64.4025 62.5228 64.3819 64.8602 64.2714 65.3816C63.9128 67.0744 62.5131 68.5228 60.7548 69.0204C60.4343 69.1112 56.7367 69.1419 43.4806 69.1642C24.7808 69.1956 25.7031 69.2227 24.4015 68.6043C23.2445 68.0546 22.2833 66.8794 21.9419 65.5971C21.8383 65.2077 21.8171 61.5649 21.8162 43.9593C21.815 20.4575 21.7641 22.3496 22.4324 21.072C23.047 19.8973 24.1953 18.9495 25.5543 18.4958C26.0278 18.3377 26.7291 18.3258 38.079 18.2819L50.1021 18.2354L50.3681 17.9374C50.8226 17.4286 50.6908 16.8444 49.9854 16.2405C49.5133 15.8362 48.9656 15.6499 47.9285 15.5408C47.4779 15.4934 42.4419 15.4582 36.4983 15.4608C26.5167 15.4654 25.825 15.4759 25.0723 15.6346Z" fill="white"/>
<path fill-rule="evenodd" clip-rule="evenodd" d="M33.3736 46.9084L31.1079 49.1698L29.9956 48.0413C29.3837 47.4205 28.7723 46.8545 28.6369 46.7835C28.285 46.5989 27.6598 46.6223 27.3144 46.8331C26.8194 47.1349 26.5843 47.8448 26.7775 48.4536C26.8485 48.6775 30.0159 51.7937 30.4335 52.0505C30.8444 52.3033 31.3718 52.2681 31.852 51.9559C32.075 51.8108 33.3924 50.5484 34.7794 49.1505C37.4893 46.4193 37.5683 46.3121 37.4074 45.5868C37.357 45.3596 37.2133 45.138 36.9904 44.9437C36.6945 44.6857 36.5846 44.6472 36.1448 44.6472H35.6393L33.3736 46.9084Z" fill="white"/>
<path fill-rule="evenodd" clip-rule="evenodd" d="M40.3976 50.173C40.0829 50.3438 39.7815 50.9236 39.7815 51.3581C39.7815 51.8124 40.0296 52.2978 40.367 52.5036C40.6362 52.6679 40.9828 52.675 48.719 52.675C56.5505 52.675 56.7989 52.6697 57.0808 52.4977C57.8293 52.0411 57.9082 50.8973 57.2322 50.3035L56.9206 50.0299L48.7843 50.0335C41.7562 50.0367 40.6138 50.0557 40.3976 50.173Z" fill="white"/>
<path fill-rule="evenodd" clip-rule="evenodd" d="M35.7687 54.107C35.6934 54.1336 34.6211 55.1616 33.3858 56.3915L31.1397 58.6277L29.9349 57.4535C29.2723 56.8077 28.6414 56.2294 28.533 56.1684C28.0325 55.8871 27.2013 56.1489 26.8852 56.6875C26.6759 57.0442 26.6658 57.6783 26.8647 57.9803C27.1131 58.3573 30.362 61.4286 30.6137 61.5243C30.9384 61.6478 31.483 61.6354 31.7231 61.4992C31.8304 61.4382 33.1293 60.1955 34.6094 58.7376C37.5223 55.8687 37.6027 55.7626 37.4099 55.0462C37.2277 54.3693 36.3869 53.8881 35.7687 54.107Z" fill="white"/>
<path fill-rule="evenodd" clip-rule="evenodd" d="M40.3602 57.7896C39.9549 58.0493 39.7505 58.5243 39.804 59.0815C39.8542 59.6049 40.0781 59.952 40.5175 60.1874C40.8142 60.3465 41.1057 60.3524 46.211 60.3016C49.1705 60.2723 52.7928 60.2482 54.2608 60.2481L56.9297 60.2479L57.2524 59.9514C57.854 59.3988 57.854 58.4515 57.2524 57.8987L56.9297 57.6022L48.7888 57.6037C40.7776 57.6052 40.6433 57.6082 40.3602 57.7896Z" fill="white"/>
<defs>
<linearGradient id="paint0_linear_60_96" x1="10" y1="6" x2="95.5" y2="108" gradientUnits="userSpaceOnUse">
<stop stop-color="#AD76FF"/>
<stop offset="1" stop-color="#110E1B"/>
</linearGradient>
</defs>
</svg>
